<svg width="100" height="91" viewBox="0 0 100 91" fill="none" xmlns="http://www.w3.org/2000/svg">
<g clip-path="url(#clip0)">
<path d="M6.65789 64.0479C6.12526 63.1158 5.59264 62.3169 5.12659 61.5846C3.46215 58.988 2.19717 58.3888 1.7977 58.3888C1.33165 58.4554 0.599297 59.1878 0.0666733 60.1198V87.6831C0.0666733 88.016 0.199829 89.0147 0.732452 89.6139C1.1985 90.0799 1.99743 90.3462 3.06268 90.3462H95.8057C96.7378 90.3462 97.5367 90.2131 98.1359 89.9467C99.8004 89.2144 99.9335 87.7497 99.9335 87.5499C99.9335 87.5499 100.133 81.6911 99.9335 70.9055V70.4394C99.8669 68.0426 99.8669 63.3822 99.8669 59.7204C99.8669 58.9214 99.8669 58.1225 99.8669 57.3901C99.3343 58.2557 98.7351 59.3875 98.2691 60.5859C94.4741 69.9734 88.7484 72.7031 84.554 73.3023C78.8949 74.1678 72.57 71.4381 68.4422 66.3782L67.843 65.6458C64.5141 61.518 59.5873 55.3262 53.7285 55.4594C49.4009 55.5925 44.6739 59.1877 39.7471 66.245C33.8882 74.6338 28.3623 78.6285 22.8363 78.4288C15.9788 78.229 11.3849 71.771 7.65655 65.779C7.32366 65.1132 6.99077 64.5806 6.65789 64.0479Z" fill="#242A66"/>
<path d="M22.3037 74.3009C26.2984 74.4341 30.8257 70.9054 35.819 63.7816C41.4781 55.7257 47.2704 51.5313 52.9295 51.3315C60.7191 51.0652 66.5114 58.2556 70.3064 62.9827L70.9056 63.715C74.1013 67.7097 78.9615 69.8402 83.2891 69.241C87.7498 68.5752 91.4116 65.0466 93.8749 58.988C96.072 53.5952 98.0028 50.7323 99.8004 50.8655L99.5341 34.6205C89.0148 6.45805 76.1652 28.8948 66.8443 41.2117C58.056 52.8628 47.2704 34.7537 46.2052 19.7736C44.6739 -1.39815 27.1639 -11.518 24.0347 20.5726C21.7045 44.5406 16.6446 57.8562 10.2531 63.3821C13.5154 68.5086 17.3769 74.1678 22.3037 74.3009Z" fill="#242A66"/>
</g>
<defs>
<clipPath id="clip0">
<rect width="100" height="90.2796" fill="white"/>
</clipPath>
</defs>
</svg>
