<svg width="100" height="91" viewBox="0 0 100 91" fill="none" xmlns="http://www.w3.org/2000/svg">
<g clip-path="url(#clip0)">
<path d="M21.9702 90.9916H1.81465C0.777706 90.9916 0 90.149 0 89.1769V69.0214C0 67.9844 0.842515 67.2067 1.81465 67.2067H21.9702C23.0071 67.2067 23.7848 68.0492 23.7848 69.0214V89.1769C23.8496 90.149 23.0071 90.9916 21.9702 90.9916Z" fill="#242A66"/>
<path d="M47.3754 90.9916H27.2198C26.1829 90.9916 25.4052 90.149 25.4052 89.1769V69.0214C25.4052 67.9844 26.2477 67.2067 27.2198 67.2067H47.3754C48.4123 67.2067 49.19 68.0492 49.19 69.0214V89.1769C49.2548 90.149 48.4123 90.9916 47.3754 90.9916Z" fill="#242A66"/>
<path d="M72.7805 90.9916H52.625C51.588 90.9916 50.8103 90.149 50.8103 89.1769V69.0214C50.8103 67.9844 51.6528 67.2067 52.625 67.2067H72.7805C73.8175 67.2067 74.5952 68.0492 74.5952 69.0214V89.1769C74.5952 90.149 73.8175 90.9916 72.7805 90.9916Z" fill="#242A66"/>
<path d="M98.1852 90.9916H78.0296C76.9927 90.9916 76.215 90.149 76.215 89.1769V69.0214C76.215 67.9844 77.0575 67.2067 78.0296 67.2067H98.1852C99.2221 67.2067 99.9998 68.0492 99.9998 69.0214V89.1769C99.9998 90.149 99.2221 90.9916 98.1852 90.9916Z" fill="#242A66"/>
<path d="M21.9702 65.7161H1.81465C0.777706 65.7161 0 64.8736 0 63.9015V43.746C0 42.709 0.842515 41.9313 1.81465 41.9313H21.9702C23.0071 41.9313 23.7848 42.7738 23.7848 43.746V63.9015C23.8496 64.8736 23.0071 65.7161 21.9702 65.7161Z" fill="#242A66"/>
<path d="M47.3754 65.7161H27.2198C26.1829 65.7161 25.4052 64.8736 25.4052 63.9015V43.746C25.4052 42.709 26.2477 41.9313 27.2198 41.9313H47.3754C48.4123 41.9313 49.19 42.7738 49.19 43.746V63.9015C49.2548 64.8736 48.4123 65.7161 47.3754 65.7161Z" fill="#242A66"/>
<path d="M47.3754 39.987H27.2198C26.1829 39.987 25.4052 39.1445 25.4052 38.1724V18.0169C25.4052 16.9799 26.2477 16.2022 27.2198 16.2022H47.3754C48.4123 16.2022 49.19 17.0447 49.19 18.0169V38.1724C49.2548 39.2093 48.4123 39.987 47.3754 39.987Z" fill="#242A66"/>
<path d="M63.3829 31.173C61.9572 31.173 60.5962 30.2657 60.0129 28.8399L53.4024 11.4712C52.6895 9.59171 53.6616 7.51783 55.4763 6.86974L72.845 0.259245C74.7245 -0.453652 76.7984 0.51848 77.4465 2.33313L84.0569 19.7019C84.7698 21.5813 83.7977 23.6552 81.9831 24.3033L64.6143 30.9138C64.2255 31.1082 63.7718 31.173 63.3829 31.173ZM74.1412 1.94427C73.9468 1.94427 73.7524 2.00908 73.5579 2.07389L56.1892 8.61958C55.3466 8.94363 54.893 9.91576 55.217 10.7583L61.8275 28.127C62.1516 28.9695 63.1237 29.4232 63.9662 29.0992L81.335 22.4887C82.1775 22.1646 82.6312 21.1925 82.3071 20.35L75.6966 2.98122C75.4374 2.33313 74.7893 1.94427 74.1412 1.94427Z" fill="#242A66"/>
<path d="M98.1852 65.7161H78.0296C76.9927 65.7161 76.215 64.8736 76.215 63.9015V43.746C76.215 42.709 77.0575 41.9313 78.0296 41.9313H98.1852C99.2221 41.9313 99.9998 42.7738 99.9998 43.746V63.9015C99.9998 64.8736 99.2221 65.7161 98.1852 65.7161Z" fill="#242A66"/>
</g>
<defs>
<clipPath id="clip0">
<rect width="100" height="90.9916" fill="white"/>
</clipPath>
</defs>
</svg>
