<svg width="18" height="19" viewBox="0 0 18 19" fill="none" xmlns="http://www.w3.org/2000/svg">
<path d="M16 0.00634766H2C0.9 0.00634766 0 0.906348 0 2.00635V16.0063C0 17.1063 0.9 18.0063 2 18.0063H16C17.1 18.0063 18 17.1063 18 16.0063V2.00635C18 0.906348 17.1 0.00634766 16 0.00634766ZM5 14.0063C4.45 14.0063 4 13.5563 4 13.0063V8.00635C4 7.45635 4.45 7.00635 5 7.00635C5.55 7.00635 6 7.45635 6 8.00635V13.0063C6 13.5563 5.55 14.0063 5 14.0063ZM9 14.0063C8.45 14.0063 8 13.5563 8 13.0063V5.00635C8 4.45635 8.45 4.00635 9 4.00635C9.55 4.00635 10 4.45635 10 5.00635V13.0063C10 13.5563 9.55 14.0063 9 14.0063ZM13 14.0063C12.45 14.0063 12 13.5563 12 13.0063V11.0063C12 10.4563 12.45 10.0063 13 10.0063C13.55 10.0063 14 10.4563 14 11.0063V13.0063C14 13.5563 13.55 14.0063 13 14.0063Z" fill="#031A6B"/>
</svg>
