<svg width="166" height="38" viewBox="0 0 166 38" fill="none" xmlns="http://www.w3.org/2000/svg">
<path d="M43.9756 14.223C40.9317 14.223 39 12.0031 39 9.19905C39 6.51183 40.9902 4.1167 43.9171 4.1167C45.5561 4.1167 46.6098 4.58404 47.5463 5.40189L46.8439 6.21974C46.0829 5.57715 45.2634 5.1098 43.8585 5.1098C41.6927 5.1098 40.1707 6.92076 40.1707 9.14063C40.1707 11.4773 41.6927 13.2299 44.0341 13.2299C45.1463 13.2299 46.2 12.821 46.8439 12.2368V9.78323H43.8585V8.84855H47.8976V12.7625C47.0195 13.522 45.6732 14.223 43.9756 14.223Z" fill="#3851A3"/>
<path d="M54.6878 14.223C51.7024 14.223 49.7122 11.8863 49.7122 9.19905C49.7122 6.51183 51.7609 4.1167 54.6878 4.1167C57.6731 4.1167 59.6634 6.45341 59.6634 9.14063C59.6634 11.8279 57.6146 14.223 54.6878 14.223ZM54.6878 5.1098C52.4634 5.1098 50.8829 6.92076 50.8829 9.14063C50.8829 11.3605 52.5219 13.1715 54.7463 13.1715C56.9707 13.1715 58.5512 11.3605 58.5512 9.14063C58.4926 6.92076 56.9122 5.1098 54.6878 5.1098Z" fill="#3851A3"/>
<path d="M70.0243 14.0478H68.6194L64.8731 9.31593L62.7658 11.419V14.0478H61.6536V4.29199H62.7658V10.1338L68.3853 4.29199H69.7901L65.5755 8.5565L70.0243 14.0478Z" fill="#3851A3"/>
<path d="M75.7024 14.0478H74.5902V10.1922L70.4927 4.29199H71.839L75.1171 9.14067L78.4536 4.29199H79.7414L75.7024 10.1922V14.0478Z" fill="#3851A3"/>
<path d="M84.9512 14.223C81.9658 14.223 79.9756 11.8863 79.9756 9.19905C79.9756 6.51183 82.0244 4.1167 84.9512 4.1167C87.878 4.1167 89.9268 6.45341 89.9268 9.14063C89.9268 11.8279 87.878 14.223 84.9512 14.223ZM84.9512 5.1098C82.7268 5.1098 81.1463 6.92076 81.1463 9.14063C81.1463 11.3605 82.7853 13.1715 85.0097 13.1715C87.2341 13.1715 88.8146 11.3605 88.8146 9.14063C88.7561 6.92076 87.1756 5.1098 84.9512 5.1098Z" fill="#3851A3"/>
<path d="M29.2917 4.625H7.70833C6.0125 4.625 4.625 6.0125 4.625 7.70833V29.2917C4.625 30.9875 6.0125 32.375 7.70833 32.375H29.2917C30.9875 32.375 32.375 30.9875 32.375 29.2917V7.70833C32.375 6.0125 30.9875 4.625 29.2917 4.625ZM12.3333 26.2083C11.4854 26.2083 10.7917 25.5146 10.7917 24.6667V16.9583C10.7917 16.1104 11.4854 15.4167 12.3333 15.4167C13.1812 15.4167 13.875 16.1104 13.875 16.9583V24.6667C13.875 25.5146 13.1812 26.2083 12.3333 26.2083ZM18.5 26.2083C17.6521 26.2083 16.9583 25.5146 16.9583 24.6667V12.3333C16.9583 11.4854 17.6521 10.7917 18.5 10.7917C19.3479 10.7917 20.0417 11.4854 20.0417 12.3333V24.6667C20.0417 25.5146 19.3479 26.2083 18.5 26.2083ZM24.6667 26.2083C23.8188 26.2083 23.125 25.5146 23.125 24.6667V21.5833C23.125 20.7354 23.8188 20.0417 24.6667 20.0417C25.5146 20.0417 26.2083 20.7354 26.2083 21.5833V24.6667C26.2083 25.5146 25.5146 26.2083 24.6667 26.2083Z" fill="#27BDC8"/>
<path d="M52.7582 29.4921L50.5832 27.295C49.3626 28.4046 48.2751 29.1148 46.4996 29.1148C43.8364 29.1148 41.9943 26.8955 41.9943 24.2323V24.1879C41.9943 21.5246 43.8808 19.3497 46.4996 19.3497C48.0532 19.3497 49.2738 20.0155 50.4723 21.103L52.6472 18.5951C51.2047 17.1747 49.4514 16.1982 46.5218 16.1982C41.7502 16.1982 38.4212 19.8157 38.4212 24.2323V24.2766C38.4212 28.7375 41.8168 32.2663 46.3887 32.2663C49.3848 32.2663 51.1603 31.201 52.7582 29.4921ZM65.5531 26.0743V26.0299C65.5531 22.6121 62.8233 19.8823 59.1392 19.8823C55.4329 19.8823 52.6809 22.6565 52.6809 26.0743V26.1187C52.6809 29.5365 55.4107 32.2663 59.0948 32.2663C62.8011 32.2663 65.5531 29.4921 65.5531 26.0743ZM62.2241 26.1187C62.2241 27.872 61.07 29.359 59.1392 29.359C57.2749 29.359 56.0099 27.8276 56.0099 26.0743V26.0299C56.0099 24.2766 57.164 22.7897 59.0948 22.7897C60.9591 22.7897 62.2241 24.321 62.2241 26.0743V26.1187ZM69.8601 32V15.7987H66.4866V32H69.8601ZM74.8926 32V15.7987H71.5192V32H74.8926ZM86.6276 32V25.0978C86.6276 21.8797 85.0075 19.9711 81.3234 19.9711C79.3038 19.9711 78.0165 20.3484 76.7071 20.9254L77.5505 23.4999C78.638 23.1004 79.5479 22.8563 80.8351 22.8563C82.5218 22.8563 83.3874 23.633 83.3874 25.0312V25.231C82.544 24.9425 81.6785 24.7427 80.48 24.7427C77.6614 24.7427 75.6862 25.9412 75.6862 28.5378V28.5822C75.6862 30.9347 77.5283 32.2219 79.7698 32.2219C81.4122 32.2219 82.544 31.6227 83.3652 30.7128V32H86.6276ZM83.4318 27.8054C83.4318 29.0261 82.3665 29.8916 80.7907 29.8916C79.7032 29.8916 78.9487 29.359 78.9487 28.449V28.4046C78.9487 27.3394 79.8364 26.7623 81.279 26.7623C82.1002 26.7623 82.8547 26.9399 83.4318 27.2062V27.8054ZM94.4379 31.5117V28.8041C93.9496 29.0705 93.3948 29.2258 92.7733 29.2258C92.0188 29.2258 91.6859 28.8485 91.6859 28.0717V22.9894H94.4822V20.1043H91.6859V17.0637H88.3124V20.1043H86.892V22.9894H88.3124V28.6266C88.3124 31.3786 89.7106 32.1997 91.7746 32.1997C92.9065 32.1997 93.7277 31.9334 94.4379 31.5117ZM106.076 26.385V26.3406C106.076 22.9672 104.256 19.8823 100.283 19.8823C96.8212 19.8823 94.4021 22.6787 94.4021 26.0743V26.1187C94.4021 29.7585 97.0432 32.2663 100.616 32.2663C102.769 32.2663 104.367 31.423 105.477 30.047L103.546 28.3381C102.614 29.2036 101.793 29.5587 100.661 29.5587C99.1516 29.5587 98.0863 28.7597 97.7534 27.2284H106.032C106.054 26.9177 106.076 26.7179 106.076 26.385ZM102.791 25.12H97.709C97.9753 23.5886 98.8852 22.5899 100.283 22.5899C101.704 22.5899 102.592 23.6108 102.791 25.12ZM114.094 23.4111V19.8823C112.097 19.7935 110.987 20.8588 110.299 22.5012V20.1043H106.926V32H110.299V27.6057C110.299 24.7649 111.675 23.4111 113.917 23.4111H114.094ZM124.205 32V25.0978C124.205 21.8797 122.585 19.9711 118.901 19.9711C116.881 19.9711 115.594 20.3484 114.284 20.9254L115.128 23.4999C116.215 23.1004 117.125 22.8563 118.412 22.8563C120.099 22.8563 120.965 23.633 120.965 25.0312V25.231C120.121 24.9425 119.256 24.7427 118.057 24.7427C115.239 24.7427 113.264 25.9412 113.264 28.5378V28.5822C113.264 30.9347 115.106 32.2219 117.347 32.2219C118.989 32.2219 120.121 31.6227 120.943 30.7128V32H124.205ZM121.009 27.8054C121.009 29.0261 119.944 29.8916 118.368 29.8916C117.281 29.8916 116.526 29.359 116.526 28.449V28.4046C116.526 27.3394 117.414 26.7623 118.856 26.7623C119.677 26.7623 120.432 26.9399 121.009 27.2062V27.8054ZM128.972 32V15.7987H125.599V32H128.972ZM151.356 32V16.4645H147.672L143.588 23.0338L139.504 16.4645H135.82V32H139.171V21.9241L143.499 28.4934H143.588L147.96 21.8575V32H151.356ZM164.653 27.4059V27.3615C164.653 24.6539 162.878 23.5221 159.726 22.7009C157.041 22.0129 156.375 21.68 156.375 20.6591V20.6147C156.375 19.8601 157.063 19.2609 158.372 19.2609C159.682 19.2609 161.036 19.8379 162.412 20.7923L164.187 18.2178C162.611 16.9528 160.681 16.2426 158.417 16.2426C155.243 16.2426 152.979 18.1068 152.979 20.9254V20.9698C152.979 24.0547 154.999 24.9203 158.128 25.7192C160.725 26.385 161.258 26.8289 161.258 27.6945V27.7388C161.258 28.6488 160.414 29.2036 159.016 29.2036C157.241 29.2036 155.776 28.4712 154.378 27.3172L152.358 29.7363C154.222 31.4008 156.597 32.2219 158.949 32.2219C162.301 32.2219 164.653 30.4908 164.653 27.4059Z" fill="#27BDC8"/>
</svg>
