<svg width="100" height="82" viewBox="0 0 100 82" fill="none" xmlns="http://www.w3.org/2000/svg">
<g clip-path="url(#clip0)">
<path d="M94.4586 81.8471H5.6051C2.54777 81.8471 0 79.3631 0 76.242V5.6051C0 2.48408 2.48408 0 5.6051 0H31.656C32.1656 0 32.6115 0.44586 32.6115 0.955414C32.6115 1.46497 32.1656 1.91083 31.5924 1.91083H5.6051C3.56688 1.91083 1.91083 3.56688 1.91083 5.6051V76.3057C1.91083 78.344 3.56688 80 5.6051 80H94.4586C96.4968 80 98.1529 78.344 98.1529 76.3057V5.6051C98.1529 3.56688 96.4968 1.91083 94.4586 1.91083H66.5605C66.0509 1.91083 65.6051 1.46497 65.6051 0.955414C65.6051 0.44586 66.0509 0 66.5605 0H94.4586C97.5159 0 100.064 2.48408 100.064 5.6051V76.3057C100 79.3631 97.5159 81.8471 94.4586 81.8471Z" fill="#242A66"/>
<path d="M98.9174 12.7389H1.1467C0.637144 12.7389 0.191284 12.293 0.191284 11.7834C0.191284 11.2739 0.57345 10.828 1.1467 10.828H98.9174C99.427 10.828 99.8728 11.2739 99.8728 11.7834C99.8728 12.293 99.427 12.7389 98.9174 12.7389Z" fill="#242A66"/>
<path d="M92.3565 18.1529H8.40744V29.2994H92.3565V18.1529Z" fill="#242A66"/>
<path d="M56.0508 74.5223H7.19733V32.3567H56.0508V74.5223ZM9.10815 72.6115H54.14V34.2675H9.10815V72.6115Z" fill="#242A66"/>
<path d="M92.484 33.3121H59.363V73.949H92.484V33.3121Z" fill="#242A66"/>
<path d="M90.8919 8.28025C91.8417 8.28025 92.6117 7.51029 92.6117 6.5605C92.6117 5.61072 91.8417 4.84076 90.8919 4.84076C89.9421 4.84076 89.1722 5.61072 89.1722 6.5605C89.1722 7.51029 89.9421 8.28025 90.8919 8.28025Z" fill="#242A66"/>
<path d="M84.1401 8.28025C85.0899 8.28025 85.8598 7.51029 85.8598 6.5605C85.8598 5.61072 85.0899 4.84076 84.1401 4.84076C83.1903 4.84076 82.4203 5.61072 82.4203 6.5605C82.4203 7.51029 83.1903 8.28025 84.1401 8.28025Z" fill="#242A66"/>
<path d="M77.707 8.28025C78.6568 8.28025 79.4268 7.51029 79.4268 6.5605C79.4268 5.61072 78.6568 4.84076 77.707 4.84076C76.7572 4.84076 75.9873 5.61072 75.9873 6.5605C75.9873 7.51029 76.7572 8.28025 77.707 8.28025Z" fill="#242A66"/>
</g>
<defs>
<clipPath id="clip0">
<rect width="100" height="81.8471" fill="white"/>
</clipPath>
</defs>
</svg>
