<svg width="107" height="57" viewBox="0 0 107 57" fill="none" xmlns="http://www.w3.org/2000/svg">
<path d="M43.6554 27.7128C43.7799 27.8371 43.8298 27.9863 43.8298 28.1603V33.2068C43.8298 33.4554 43.7301 33.6294 43.5059 33.7786C42.8829 34.2012 42.1853 34.5492 41.4129 34.773C40.6405 35.0216 39.868 35.121 39.0707 35.121C37.6505 35.121 36.3548 34.7978 35.2087 34.1266C34.0625 33.4803 33.1655 32.5605 32.4928 31.4169C31.8449 30.2734 31.4961 28.9807 31.4961 27.5637C31.4961 26.1467 31.82 24.854 32.4928 23.7104C33.1406 22.5669 34.0625 21.6719 35.2087 21.0007C36.3548 20.3544 37.6505 20.0063 39.0707 20.0063C39.8182 20.0063 40.5408 20.1058 41.2135 20.2798C41.9112 20.4538 42.5341 20.7273 43.0823 21.0505C43.2816 21.1748 43.3813 21.3488 43.3813 21.5725C43.3813 21.7465 43.3314 21.8957 43.2069 22.0448C43.0823 22.1691 42.9577 22.2437 42.8082 22.2437C42.6587 22.2437 42.5341 22.2189 42.4344 22.1443C41.388 21.5725 40.2667 21.2742 39.0956 21.2742C37.8996 21.2742 36.8282 21.5476 35.8814 22.0946C34.9346 22.6415 34.1871 23.3873 33.6638 24.3568C33.1406 25.3015 32.8665 26.3953 32.8665 27.5637C32.8665 28.7569 33.1406 29.8259 33.6638 30.7706C34.1871 31.7152 34.9346 32.4859 35.8814 33.0328C36.8282 33.5797 37.8996 33.8532 39.0956 33.8532C39.6936 33.8532 40.2916 33.7786 40.9145 33.6046C41.5125 33.4306 42.0607 33.2068 42.5341 32.9085V28.7818H39.1953C39.0209 28.7818 38.8714 28.7321 38.7219 28.6078C38.5973 28.4835 38.5226 28.3343 38.5226 28.1603C38.5226 27.9863 38.5973 27.8371 38.7219 27.7128C38.8465 27.5885 38.996 27.5388 39.1953 27.5388H43.2069C43.3813 27.514 43.5308 27.5885 43.6554 27.7128Z" fill="#031A6B"/>
<path d="M60.5238 31.4669C59.9258 32.6105 59.0786 33.5054 58.0321 34.1518C56.9607 34.7981 55.7647 35.1213 54.3943 35.1213C53.0488 35.1213 51.8279 34.7981 50.7565 34.1518C49.6851 33.5054 48.8628 32.6105 48.2649 31.4669C47.6669 30.3234 47.3679 29.0307 47.3679 27.5888C47.3679 26.147 47.6669 24.8294 48.2649 23.6859C48.8628 22.5423 49.71 21.6474 50.7565 21.001C51.8279 20.3547 53.0239 20.0315 54.3943 20.0315C55.7398 20.0315 56.9607 20.3547 58.0321 21.001C59.1035 21.6474 59.9258 22.5423 60.5238 23.6859C61.1218 24.8294 61.4208 26.1221 61.4208 27.5888C61.4208 29.0307 61.1218 30.3234 60.5238 31.4669ZM59.3527 24.3322C58.8793 23.3875 58.2065 22.6418 57.3345 22.0948C56.4624 21.5728 55.4906 21.2993 54.3943 21.2993C53.298 21.2993 52.3013 21.5728 51.4542 22.0948C50.5821 22.6169 49.9093 23.3627 49.4359 24.3322C48.9625 25.2769 48.7133 26.3707 48.7133 27.5888C48.7133 28.8069 48.9625 29.9008 49.4359 30.8454C49.9093 31.7901 50.5821 32.5359 51.4542 33.0828C52.3262 33.6049 53.298 33.8783 54.3943 33.8783C55.4906 33.8783 56.4873 33.6049 57.3345 33.0828C58.2065 32.5608 58.8793 31.815 59.3527 30.8454C59.8261 29.9008 60.0753 28.8069 60.0753 27.5888C60.0753 26.3707 59.851 25.2769 59.3527 24.3322Z" fill="#031A6B"/>
<path d="M76.869 34.3257C76.869 34.5246 76.7943 34.6986 76.6448 34.8229C76.4953 34.9472 76.3209 34.9969 76.1465 34.9969C75.972 34.9969 75.8226 34.9223 75.6731 34.7732L69.8426 27.4147L66.9772 30.0996V34.276C66.9523 34.4749 66.9024 34.624 66.7779 34.7483C66.6533 34.8726 66.5038 34.9223 66.3044 34.9223C66.1051 34.9223 65.9556 34.8726 65.831 34.7483C65.7064 34.624 65.6566 34.4749 65.6566 34.276V20.9015C65.6566 20.7026 65.7314 20.5534 65.8559 20.4291C65.9805 20.3048 66.1549 20.2551 66.3294 20.2551C66.5287 20.2551 66.6782 20.3048 66.8028 20.4291C66.9274 20.5534 66.9772 20.7026 66.9772 20.9015V28.5085L75.4488 20.5037C75.5734 20.3546 75.7229 20.3048 75.9222 20.3048C76.0966 20.3048 76.2212 20.3794 76.3458 20.5037C76.4704 20.628 76.5202 20.7772 76.5202 20.9263C76.5202 21.1004 76.4455 21.2495 76.3209 21.3738L70.8393 26.47L76.7195 33.8782C76.8192 34.0274 76.869 34.1765 76.869 34.3257Z" fill="#031A6B"/>
<path d="M90.4236 21.2008L85.7393 27.6395V34.3019C85.7393 34.4759 85.6646 34.6251 85.54 34.7494C85.4154 34.8737 85.2659 34.9234 85.0666 34.9234C84.8922 34.9234 84.7427 34.8737 84.6181 34.7494C84.4935 34.6251 84.4437 34.4759 84.4437 34.3019V27.6644L79.7345 21.2506C79.6099 21.1263 79.5601 20.9771 79.5601 20.8031C79.5601 20.6291 79.6348 20.4799 79.7594 20.3556C79.9089 20.2313 80.0584 20.1567 80.2328 20.1567C80.4571 20.1567 80.6315 20.2562 80.756 20.4551L85.0915 26.3717L89.3273 20.4551C89.4768 20.2562 89.6512 20.1567 89.8755 20.1567C90.0499 20.1567 90.1994 20.2313 90.324 20.3556C90.4486 20.4799 90.5233 20.6291 90.5233 20.7782C90.5482 20.9025 90.4984 21.0268 90.4236 21.2008Z" fill="#031A6B"/>
<path d="M105.797 31.4669C105.199 32.6105 104.352 33.5054 103.305 34.1518C102.234 34.7981 101.038 35.1213 99.6676 35.1213C98.3221 35.1213 97.1012 34.7981 96.0298 34.1518C94.9584 33.5054 94.1362 32.6105 93.5382 31.4669C92.9402 30.3234 92.6412 29.0307 92.6412 27.5888C92.6412 26.147 92.9402 24.8294 93.5382 23.6859C94.1362 22.5423 94.9833 21.6474 96.0298 21.001C97.1012 20.3547 98.2972 20.0315 99.6676 20.0315C101.013 20.0315 102.234 20.3547 103.305 21.001C104.377 21.6474 105.199 22.5423 105.797 23.6859C106.395 24.8294 106.694 26.1221 106.694 27.5888C106.719 29.0307 106.42 30.3234 105.797 31.4669ZM104.651 24.3322C104.178 23.3875 103.505 22.6418 102.633 22.0948C101.761 21.5728 100.789 21.2993 99.6926 21.2993C98.5962 21.2993 97.5996 21.5728 96.7524 22.0948C95.8803 22.6169 95.2076 23.3627 94.7342 24.3322C94.2607 25.2769 94.0116 26.3707 94.0116 27.5888C94.0116 28.8069 94.2607 29.9008 94.7342 30.8454C95.2076 31.7901 95.8803 32.5359 96.7524 33.0828C97.6245 33.6049 98.5962 33.8783 99.6926 33.8783C100.789 33.8783 101.786 33.6049 102.633 33.0828C103.505 32.5608 104.178 31.815 104.651 30.8454C105.124 29.9008 105.374 28.8069 105.374 27.5888C105.374 26.3707 105.124 25.2769 104.651 24.3322Z" fill="#031A6B"/>
<path d="M36.7282 45.4638C36.8279 45.5632 36.8777 45.6875 36.8777 45.8367C36.8777 45.9858 36.8279 46.1101 36.7282 46.1847C36.6286 46.2841 36.504 46.3339 36.3545 46.3339H33.5389C33.3894 46.3339 33.2649 46.2841 33.1652 46.1847C33.0655 46.0853 33.0157 45.961 33.0157 45.8118V40.815C33.0157 40.6659 33.0655 40.5416 33.1652 40.4421C33.2649 40.3427 33.3894 40.293 33.5638 40.293C33.7133 40.293 33.8379 40.3427 33.9376 40.4421C34.0373 40.5416 34.0871 40.6659 34.0871 40.815V45.3146H36.3545C36.504 45.3146 36.6286 45.3643 36.7282 45.4638Z" fill="#27BDC8"/>
<path d="M48.7131 45.861C48.7131 46.0102 48.6632 46.1345 48.5636 46.2339C48.4639 46.3334 48.3642 46.3831 48.2147 46.3831C48.1151 46.3831 48.0154 46.3582 47.9407 46.2837C47.8659 46.2091 47.7912 46.1345 47.7413 46.0351L47.2928 44.991H44.7264L44.2779 46.0351C44.2281 46.1345 44.1783 46.2339 44.1035 46.2837C44.0288 46.3334 43.9291 46.3831 43.8294 46.3831C43.6799 46.3831 43.5554 46.3334 43.4806 46.2588C43.4059 46.1842 43.356 46.0599 43.356 45.9356C43.356 45.8859 43.356 45.8362 43.3809 45.7616L45.5238 40.6157C45.5736 40.4914 45.6483 40.4168 45.7231 40.3422C45.8228 40.2676 45.9224 40.2428 46.0221 40.2676C46.1218 40.2676 46.2214 40.2925 46.3211 40.3671C46.4208 40.4168 46.4706 40.5162 46.5204 40.6157L48.6632 45.6373C48.6882 45.7119 48.7131 45.7865 48.7131 45.861ZM45.15 43.9717H46.8693L45.9972 41.9581L45.15 43.9717Z" fill="#27BDC8"/>
<path d="M59.8757 43.5247C60.075 43.7733 60.1747 44.0965 60.1747 44.4942C60.1747 45.1903 59.9754 45.6627 59.5767 45.9361C59.178 46.2096 58.7295 46.3339 58.1814 46.3339H56.0386C55.8891 46.3339 55.7645 46.2841 55.6648 46.1847C55.5652 46.0853 55.5153 45.961 55.5153 45.8118V40.815C55.5153 40.6659 55.5652 40.5416 55.6648 40.4421C55.7645 40.3427 55.8891 40.293 56.0386 40.293H58.2063C59.3026 40.293 59.8508 40.815 59.8508 41.8343C59.8508 42.0829 59.801 42.3315 59.6764 42.5303C59.5518 42.7292 59.3774 42.8784 59.1531 43.0027C59.4272 43.1021 59.6764 43.2761 59.8757 43.5247ZM58.5302 41.4862C58.4056 41.3619 58.2561 41.3122 58.0319 41.3122H56.6116V42.6546H58.0568C58.2312 42.6546 58.3807 42.6049 58.5053 42.4806C58.6299 42.3563 58.7046 42.2072 58.7046 42.0083C58.7046 41.7845 58.6548 41.5857 58.5302 41.4862ZM58.8043 45.1157C58.9538 44.9666 59.0285 44.7677 59.0285 44.4942C59.0285 44.1462 58.9289 43.9225 58.7545 43.823C58.58 43.7236 58.3558 43.6739 58.1066 43.6739H56.6116V45.3395H58.1565C58.4305 45.3395 58.6548 45.2649 58.8043 45.1157Z" fill="#27BDC8"/>
<path d="M68.0483 46.2581C67.7244 46.1587 67.4254 45.9847 67.1513 45.7361C67.0018 45.5869 66.9271 45.4378 66.9271 45.2886C66.9271 45.1643 66.9769 45.04 67.0766 44.9406C67.1762 44.8411 67.3008 44.7914 67.4254 44.7914C67.5251 44.7914 67.6247 44.8163 67.7244 44.8909C67.9486 45.0897 68.1729 45.214 68.3971 45.3135C68.6214 45.3881 68.8705 45.4378 69.1695 45.4378C69.4935 45.4378 69.7675 45.3632 69.9918 45.214C70.216 45.0649 70.3406 44.8909 70.3406 44.6671C70.3406 44.4185 70.216 44.1948 69.9918 44.0705C69.7675 43.9213 69.3938 43.8219 68.8955 43.7473C67.6247 43.5733 67.0018 42.9767 67.0018 41.9823C67.0018 41.6094 67.1015 41.3111 67.2759 41.0376C67.4752 40.7642 67.7244 40.5653 68.0483 40.4161C68.3722 40.267 68.746 40.1924 69.1446 40.1924C69.5184 40.1924 69.8423 40.2421 70.1662 40.3664C70.4901 40.4658 70.7642 40.615 70.9635 40.789C71.1379 40.9133 71.2127 41.0625 71.2127 41.2365C71.2127 41.3608 71.1629 41.4851 71.0632 41.5845C70.9635 41.684 70.839 41.7337 70.7144 41.7337C70.6396 41.7337 70.54 41.7088 70.4901 41.6591C70.3406 41.5348 70.1413 41.4354 69.8672 41.3359C69.5931 41.2365 69.3689 41.1868 69.1446 41.1868C68.7709 41.1868 68.4968 41.2614 68.2975 41.3856C68.0981 41.5099 67.9985 41.7088 67.9985 41.9077C67.9985 42.1563 68.0981 42.3303 68.2975 42.4795C68.4968 42.6038 68.8207 42.7032 69.2692 42.7778C69.7675 42.8524 70.1662 42.9767 70.4652 43.101C70.7642 43.2253 70.9884 43.4241 71.1379 43.6479C71.2874 43.8716 71.3622 44.1948 71.3622 44.5677C71.3622 44.9406 71.2625 45.2389 71.0632 45.5124C70.8639 45.7858 70.5898 45.9847 70.241 46.1338C69.8921 46.283 69.5433 46.3576 69.1446 46.3576C68.746 46.4073 68.3722 46.3576 68.0483 46.2581Z" fill="#27BDC8"/>
<path d="M4.34047 40.6638C4.34047 40.6638 2.31343 34.6314 10.3866 26.3674C19.1938 17.3712 14.266 7.29396 14.266 7.29396L11.2254 0.0760268C11.1555 -0.0634502 10.9458 0.00628831 10.9808 0.145765C11.7846 4.71364 9.19838 9.52559 3.95603 15.5231C-2.92892 23.3338 1.26496 32.609 1.26496 32.609L4.34047 40.6638Z" fill="#031A6B"/>
<path d="M9.6525 56.0063C9.6525 56.0063 7.76526 49.9041 16.0482 41.8494C25.065 33.0623 20.4168 22.8805 20.4168 22.8805L16.852 13.8494C17.9005 20.0561 16.0132 24.2404 9.89714 30.8655C2.83745 38.5368 6.78669 47.8469 6.78669 47.8469L9.6525 56.0063Z" fill="#27BDC8"/>
</svg>
