<svg width="100" height="93" viewBox="0 0 100 93" fill="none" xmlns="http://www.w3.org/2000/svg">
<g clip-path="url(#clip0)">
<path d="M71.0712 76.1386C70.8146 76.1386 70.4939 76.0103 70.3015 75.7537L62.1552 65.4907C61.8345 65.1059 61.8986 64.4644 62.2835 64.1437C62.6684 63.823 63.3098 63.8871 63.6305 64.272L71.7768 74.535C72.0975 74.9198 72.0333 75.5613 71.6485 75.882C71.456 76.0744 71.2636 76.1386 71.0712 76.1386Z" fill="#242A66"/>
<path d="M57.2161 31.687C57.0878 31.687 57.0237 31.687 56.8954 31.6228C56.3822 31.4304 56.1257 30.9173 56.3181 30.4041L60.4233 18.73C60.6157 18.2168 61.1289 17.9602 61.642 18.1527C62.1552 18.3451 62.4117 18.8582 62.2193 19.3714L58.1141 31.0456C57.9858 31.4304 57.601 31.687 57.2161 31.687Z" fill="#242A66"/>
<path d="M64.5287 20.5901C59.7179 20.5901 55.3561 17.1905 54.4581 12.2514C53.3677 6.67093 57.0239 1.28287 62.6044 0.192423C68.1848 -0.898019 73.5729 2.75817 74.6634 8.33867C75.7538 13.9192 72.0976 19.3072 66.5171 20.3977C65.8115 20.526 65.1701 20.5901 64.5287 20.5901ZM62.9251 2.05259C58.3709 2.9506 55.4203 7.31237 56.3183 11.8666C57.2163 16.4208 61.5781 19.3714 66.1322 18.4734C70.6864 17.5754 73.6371 13.2136 72.739 8.65939C71.841 4.10519 67.4793 1.21872 62.9251 2.05259Z" fill="#262C64"/>
<path d="M69.083 43.6818C68.6981 43.6818 68.3774 43.4894 68.185 43.1046C67.9925 42.5914 68.1849 42.0783 68.6981 41.8217L80.9495 36.4336C81.4627 36.2412 81.9758 36.4336 82.2324 36.9468C82.4248 37.4599 82.2324 37.9731 81.7193 38.2296L69.4678 43.6177C69.3395 43.6818 69.2112 43.6818 69.083 43.6818Z" fill="#242A66"/>
<path d="M89.6728 43.1687C87.6202 43.1687 85.6317 42.5914 83.8357 41.3085C79.1532 38.1014 77.9986 31.6228 81.2699 27.0045C84.4771 22.322 90.9556 21.1674 95.574 24.4387C100.256 27.6459 101.411 34.1244 98.1397 38.7428C96.1513 41.6293 92.9441 43.1687 89.6728 43.1687ZM89.7369 24.567C87.107 24.567 84.4771 25.8499 82.8735 28.1591C80.2436 31.9436 81.2058 37.1392 84.9903 39.7691C88.7747 42.399 93.9704 41.4368 96.6003 37.6524C99.2302 33.8679 98.268 28.6722 94.4835 26.0423C93.0082 25.016 91.3405 24.567 89.7369 24.567Z" fill="#262C64"/>
<path d="M19.628 57.0879C19.179 57.0879 18.7942 56.7672 18.6659 56.3182C18.5376 55.805 18.8583 55.2919 19.3715 55.1636L30.9173 52.5978C31.4305 52.4696 31.9436 52.7903 32.0719 53.3034C32.2002 53.8166 31.8795 54.3297 31.3663 54.458L19.8205 57.0238C19.7563 57.0879 19.6922 57.0879 19.628 57.0879Z" fill="#242A66"/>
<path d="M10.2632 67.5433C9.04448 67.5433 7.82575 67.3509 6.67116 66.9019C4.10542 65.9397 2.05282 64.0154 0.898233 61.5138C-0.19221 59.0122 -0.320497 56.1899 0.641658 53.6241C2.63011 48.3002 8.59548 45.6062 13.8553 47.5946C19.1792 49.5831 21.8732 55.5484 19.8848 60.8082C18.3453 64.9776 14.4325 67.5433 10.2632 67.5433ZM2.43768 54.2656C1.66796 56.3823 1.7321 58.6273 2.63011 60.6799C3.52812 62.7325 5.19586 64.272 7.3126 65.0417C11.6102 66.6453 16.4851 64.4644 18.0887 60.1668C19.6923 55.8692 17.5114 50.9942 13.2138 49.3907C8.91619 47.7871 4.10542 49.9679 2.43768 54.2656Z" fill="#262C64"/>
<path d="M50.2885 69.0827C61.235 69.0827 70.1089 60.2089 70.1089 49.2624C70.1089 38.3159 61.235 29.442 50.2885 29.442C39.342 29.442 30.4681 38.3159 30.4681 49.2624C30.4681 60.2089 39.342 69.0827 50.2885 69.0827Z" fill="#242A66"/>
<path d="M76.8442 92.4952C75.6255 92.4952 74.4068 92.3028 73.2522 91.8538C67.9283 89.8653 65.2342 83.8999 67.2227 78.6402C69.2111 73.3162 75.1765 70.6222 80.4363 72.6106C83.002 73.5728 85.0546 75.4971 86.2092 77.9987C87.3638 80.5003 87.4279 83.3226 86.4658 85.8884C84.9263 89.9294 81.0136 92.4952 76.8442 92.4952ZM76.8442 73.8294C73.4446 73.8294 70.2374 75.882 69.0187 79.2816C67.4151 83.5792 69.596 88.4541 73.8936 90.0577C78.1912 91.6613 83.0662 89.4804 84.6697 85.1828C85.4395 83.0661 85.3753 80.821 84.4773 78.7684C83.5793 76.7158 81.9116 75.1764 79.7948 74.4067C78.8327 74.0218 77.8064 73.8294 76.8442 73.8294Z" fill="#262C64"/>
</g>
<defs>
<clipPath id="clip0">
<rect width="100" height="92.4952" fill="white"/>
</clipPath>
</defs>
</svg>
