<svg width="20" height="21" viewBox="0 0 20 21" fill="none" xmlns="http://www.w3.org/2000/svg">
<path d="M10 0.00634766C4.48 0.00634766 0 4.48635 0 10.0063C0 15.5263 4.48 20.0063 10 20.0063C15.52 20.0063 20 15.5263 20 10.0063C20 4.48635 15.52 0.00634766 10 0.00634766ZM6.75 11.6863C6.62 12.1163 6.13 12.3163 5.73 12.1363C5.39 11.9763 5.22 11.5963 5.33 11.2363C5.45 10.8263 5.51 10.4063 5.5 9.99635C5.49 9.58635 5.44 9.19635 5.33 8.81635C5.23 8.45635 5.39 8.06635 5.73 7.91635C6.15 7.72635 6.64 7.95635 6.77 8.40635C6.92 8.91635 6.99 9.43635 7 9.97635C7 10.5363 6.92 11.1163 6.75 11.6863ZM9.89 13.2763C9.72 13.6863 9.22 13.8463 8.83 13.6263C8.5 13.4363 8.37 13.0363 8.51 12.6863C8.84 11.9163 9 11.0563 9 10.1263C9 9.16635 8.82 8.23635 8.47 7.34635C8.33 6.98635 8.49 6.58635 8.83 6.40635C9.22 6.20635 9.7 6.38635 9.86 6.79635C10.28 7.85635 10.49 8.97635 10.49 10.1263C10.51 11.2563 10.3 12.3163 9.89 13.2763ZM13 14.6063C12.83 15.0063 12.36 15.1863 11.98 14.9963C11.63 14.8263 11.46 14.4063 11.61 14.0463C12.2 12.6563 12.5 11.2963 12.5 9.98635C12.5 8.67635 12.2 7.33635 11.62 5.97635C11.46 5.61635 11.63 5.19635 11.98 5.02635C12.37 4.82635 12.83 5.00635 13 5.40635C13.66 6.94635 14 8.48635 14 9.98635C14 11.4863 13.66 13.0463 13 14.6063Z" fill="#031A6B"/>
</svg>
