<svg width="9" height="21" viewBox="0 0 9 21" fill="none" xmlns="http://www.w3.org/2000/svg">
<path d="M1.68186 3.36023C2.61073 3.36023 3.36372 2.60944 3.36372 1.68329C3.36372 0.75714 2.61073 0.00634766 1.68186 0.00634766C0.752995 0.00634766 0 0.75714 0 1.68329C0 2.60944 0.752995 3.36023 1.68186 3.36023Z" fill="#031A6B"/>
<path d="M1.68186 8.87903C2.61073 8.87903 3.36372 8.12824 3.36372 7.20209C3.36372 6.27594 2.61073 5.52515 1.68186 5.52515C0.752995 5.52515 0 6.27594 0 7.20209C0 8.12824 0.752995 8.87903 1.68186 8.87903Z" fill="#031A6B"/>
<path d="M1.68186 14.3978C2.61073 14.3978 3.36372 13.647 3.36372 12.7209C3.36372 11.7947 2.61073 11.0439 1.68186 11.0439C0.752995 11.0439 0 11.7947 0 12.7209C0 13.647 0.752995 14.3978 1.68186 14.3978Z" fill="#031A6B"/>
<path d="M1.68186 19.9166C2.61073 19.9166 3.36372 19.1658 3.36372 18.2397C3.36372 17.3135 2.61073 16.5627 1.68186 16.5627C0.752995 16.5627 0 17.3135 0 18.2397C0 19.1658 0.752995 19.9166 1.68186 19.9166Z" fill="#031A6B"/>
<path d="M7.26156 3.36023C8.19043 3.36023 8.94342 2.60944 8.94342 1.68329C8.94342 0.75714 8.19043 0.00634766 7.26156 0.00634766C6.33269 0.00634766 5.5797 0.75714 5.5797 1.68329C5.5797 2.60944 6.33269 3.36023 7.26156 3.36023Z" fill="#031A6B"/>
<path d="M7.26156 8.87903C8.19043 8.87903 8.94342 8.12824 8.94342 7.20209C8.94342 6.27594 8.19043 5.52515 7.26156 5.52515C6.33269 5.52515 5.5797 6.27594 5.5797 7.20209C5.5797 8.12824 6.33269 8.87903 7.26156 8.87903Z" fill="#031A6B"/>
<path d="M7.26156 14.3978C8.19043 14.3978 8.94342 13.647 8.94342 12.7209C8.94342 11.7947 8.19043 11.0439 7.26156 11.0439C6.33269 11.0439 5.5797 11.7947 5.5797 12.7209C5.5797 13.647 6.33269 14.3978 7.26156 14.3978Z" fill="#031A6B"/>
<path d="M7.26156 20.0065C8.19043 20.0065 8.94342 19.2557 8.94342 18.3295C8.94342 17.4034 8.19043 16.6526 7.26156 16.6526C6.33269 16.6526 5.5797 17.4034 5.5797 18.3295C5.5797 19.2557 6.33269 20.0065 7.26156 20.0065Z" fill="#031A6B"/>
</svg>
