<svg width="128" height="29" viewBox="0 0 128 29" fill="none" xmlns="http://www.w3.org/2000/svg">
<g clip-path="url(#clip0)">
<path d="M2.4 4.79026C3.72548 4.79026 4.8 3.71793 4.8 2.39513C4.8 1.07234 3.72548 0 2.4 0C1.07452 0 0 1.07234 0 2.39513C0 3.71793 1.07452 4.79026 2.4 4.79026Z" fill="#3851A3"/>
<path d="M2.4 12.6767C3.72548 12.6767 4.8 11.6044 4.8 10.2816C4.8 8.95881 3.72548 7.88647 2.4 7.88647C1.07452 7.88647 0 8.95881 0 10.2816C0 11.6044 1.07452 12.6767 2.4 12.6767Z" fill="#3851A3"/>
<path d="M2.4 20.5632C3.72548 20.5632 4.8 19.4909 4.8 18.1681C4.8 16.8453 3.72548 15.7729 2.4 15.7729C1.07452 15.7729 0 16.8453 0 18.1681C0 19.4909 1.07452 20.5632 2.4 20.5632Z" fill="#3851A3"/>
<path d="M2.4 28.4494C3.72548 28.4494 4.8 27.3771 4.8 26.0543C4.8 24.7315 3.72548 23.6592 2.4 23.6592C1.07452 23.6592 0 24.7315 0 26.0543C0 27.3771 1.07452 28.4494 2.4 28.4494Z" fill="#3851A3"/>
<path d="M10.3609 4.79026C11.6864 4.79026 12.7609 3.71793 12.7609 2.39513C12.7609 1.07234 11.6864 0 10.3609 0C9.03545 0 7.96094 1.07234 7.96094 2.39513C7.96094 3.71793 9.03545 4.79026 10.3609 4.79026Z" fill="#F26128"/>
<path d="M10.3609 12.6767C11.6864 12.6767 12.7609 11.6044 12.7609 10.2816C12.7609 8.95881 11.6864 7.88647 10.3609 7.88647C9.03545 7.88647 7.96094 8.95881 7.96094 10.2816C7.96094 11.6044 9.03545 12.6767 10.3609 12.6767Z" fill="#F26128"/>
<path d="M10.3609 20.5632C11.6864 20.5632 12.7609 19.4909 12.7609 18.1681C12.7609 16.8453 11.6864 15.7729 10.3609 15.7729C9.03545 15.7729 7.96094 16.8453 7.96094 18.1681C7.96094 19.4909 9.03545 20.5632 10.3609 20.5632Z" fill="#F26128"/>
<path d="M10.3609 28.4494C11.6864 28.4494 12.7609 27.3771 12.7609 26.0543C12.7609 24.7315 11.6864 23.6592 10.3609 23.6592C9.03545 23.6592 7.96094 24.7315 7.96094 26.0543C7.96094 27.3771 9.03545 28.4494 10.3609 28.4494Z" fill="#F26128"/>
<path d="M25.4636 10.223C22.4197 10.223 20.488 8.00311 20.488 5.19905C20.488 2.51183 22.4783 0.116699 25.4051 0.116699C27.0441 0.116699 28.0978 0.584042 29.0344 1.40189L28.3319 2.21974C27.571 1.57715 26.7515 1.1098 25.3466 1.1098C23.1807 1.1098 21.6588 2.92076 21.6588 5.14063C21.6588 7.47735 23.1807 9.22988 25.5222 9.22988C26.6344 9.22988 27.688 8.82096 28.3319 8.23678V5.78323H25.3466V4.84855H29.3856V8.76254C28.5076 9.52197 27.1612 10.223 25.4636 10.223Z" fill="#F26128"/>
<path d="M36.1758 10.223C33.1904 10.223 31.2002 7.88627 31.2002 5.19905C31.2002 2.51183 33.249 0.116699 36.1758 0.116699C39.1612 0.116699 41.1514 2.45341 41.1514 5.14063C41.1514 7.82786 39.1026 10.223 36.1758 10.223ZM36.1758 1.1098C33.9514 1.1098 32.3709 2.92076 32.3709 5.14063C32.3709 7.36051 34.01 9.17146 36.2343 9.17146C38.4587 9.17146 40.0392 7.36051 40.0392 5.14063C39.9807 2.92076 38.4002 1.1098 36.1758 1.1098Z" fill="#F26128"/>
<path d="M51.5123 10.0478H50.1075L46.3611 5.31593L44.2538 7.41897V10.0478H43.1416V0.291992H44.2538V6.13378L49.8733 0.291992H51.2782L47.0636 4.5565L51.5123 10.0478Z" fill="#F26128"/>
<path d="M57.1905 10.0478H56.0783V6.1922L51.9807 0.291992H53.3271L56.6051 5.14067L59.9417 0.291992H61.2295L57.1905 6.1922V10.0478Z" fill="#F26128"/>
<path d="M66.4392 10.223C63.4539 10.223 61.4636 7.88627 61.4636 5.19905C61.4636 2.51183 63.5124 0.116699 66.4392 0.116699C69.3661 0.116699 71.4148 2.45341 71.4148 5.14063C71.4148 7.82786 69.3661 10.223 66.4392 10.223ZM66.4392 1.1098C64.2148 1.1098 62.6344 2.92076 62.6344 5.14063C62.6344 7.36051 64.2734 9.17146 66.4978 9.17146C68.7222 9.17146 70.3026 7.36051 70.3026 5.14063C70.2441 2.92076 68.6636 1.1098 66.4392 1.1098Z" fill="#F26128"/>
<path d="M30.1464 28.5079L26.7513 23.484H24V28.5079H20.5464V12.7351H27.7464C31.4927 12.7351 33.7171 14.7213 33.7171 17.9343V17.9927C33.7171 20.5631 32.3122 22.1404 30.322 22.8998L34.1854 28.5079H30.1464ZM30.2049 18.168C30.2049 16.7075 29.1513 15.8897 27.4537 15.8897H24V20.4463H27.5122C29.2098 20.4463 30.2049 19.5116 30.2049 18.168Z" fill="#3851A3"/>
<path d="M46.1855 23.6591H37.7563C38.1075 25.2364 39.1611 25.9958 40.7416 25.9958C41.9124 25.9958 42.7319 25.6453 43.6685 24.7691L45.6587 26.5216C44.5465 27.9236 42.9075 28.7999 40.7416 28.7999C37.1124 28.7999 34.4197 26.2295 34.4197 22.5492V22.4908C34.4197 19.0441 36.8782 16.1816 40.3904 16.1816C44.4294 16.1816 46.3026 19.3362 46.3026 22.7244V22.7829C46.1855 23.1918 46.1855 23.367 46.1855 23.6591ZM40.3319 18.9857C38.927 18.9857 37.9904 19.9788 37.6977 21.5561H42.8489C42.6733 20.0372 41.7368 18.9857 40.3319 18.9857Z" fill="#3851A3"/>
<path d="M53.1513 28.7999C49.522 28.7999 46.8293 25.9958 46.8293 22.5492V22.4908C46.8293 19.0441 49.4635 16.1816 53.1513 16.1816C55.4342 16.1816 56.8391 16.9411 58.0098 18.2263L55.9025 20.5046C55.1415 19.6867 54.3806 19.161 53.1513 19.161C51.4537 19.161 50.2245 20.6798 50.2245 22.4324V22.4908C50.2245 24.3601 51.3952 25.8206 53.2684 25.8206C54.4391 25.8206 55.2001 25.3532 56.0196 24.5354L58.0098 26.58C56.8976 27.8652 55.5513 28.7999 53.1513 28.7999Z" fill="#3851A3"/>
<path d="M64.5659 28.7999C60.8196 28.7999 58.0684 26.0543 58.0684 22.5492V22.4908C58.0684 19.0441 60.8781 16.1816 64.6245 16.1816C68.3708 16.1816 71.122 18.9273 71.122 22.4324V22.4908C71.122 25.9958 68.3123 28.7999 64.5659 28.7999ZM67.7269 22.4908C67.7269 20.7382 66.4391 19.161 64.5659 19.161C62.5757 19.161 61.4049 20.6798 61.4049 22.4324V22.4908C61.4049 24.2433 62.6928 25.8206 64.5659 25.8206C66.5562 25.879 67.7269 24.3601 67.7269 22.4908Z" fill="#3851A3"/>
<path d="M79.9027 28.508V21.7899C79.9027 20.1542 79.1417 19.3364 77.8539 19.3364C76.5661 19.3364 75.688 20.1542 75.688 21.7899V28.508H72.2344V16.4739H75.688V18.168C76.449 17.1749 77.5027 16.2402 79.2588 16.2402C81.8344 16.2402 83.3563 17.9344 83.3563 20.7384V28.5664H79.9027V28.508Z" fill="#3851A3"/>
<path d="M90.6733 28.7999C87.044 28.7999 84.3513 25.9958 84.3513 22.5492V22.4908C84.3513 19.0441 86.9855 16.1816 90.6733 16.1816C92.9562 16.1816 94.3611 16.9411 95.5318 18.2263L93.4245 20.5046C92.6635 19.6867 91.9025 19.161 90.6733 19.161C88.9757 19.161 87.7464 20.6798 87.7464 22.4324V22.4908C87.7464 24.3601 88.9172 25.8206 90.7903 25.8206C91.9611 25.8206 92.7221 25.3532 93.5416 24.5354L95.5318 26.58C94.4781 27.8652 93.0733 28.7999 90.6733 28.7999Z" fill="#3851A3"/>
<path d="M96.5854 15.1303V12.0925H100.215V15.1303H96.5854ZM96.644 28.5079V16.4739H100.098V28.5664H96.644V28.5079Z" fill="#3851A3"/>
<path d="M102.146 28.5079V12.0925H105.6V28.5664H102.146V28.5079Z" fill="#3851A3"/>
<path d="M118.654 23.6591H110.224C110.576 25.2364 111.629 25.9958 113.21 25.9958C114.38 25.9958 115.2 25.6453 116.136 24.7691L118.127 26.5216C117.015 27.9236 115.376 28.7999 113.21 28.7999C109.58 28.7999 106.888 26.2295 106.888 22.5492V22.4908C106.888 19.0441 109.346 16.1816 112.858 16.1816C116.897 16.1816 118.771 19.3362 118.771 22.7244V22.7829C118.712 23.1918 118.712 23.367 118.654 23.6591ZM112.858 18.9857C111.454 18.9857 110.517 19.9788 110.224 21.5561H115.376C115.2 20.0372 114.263 18.9857 112.858 18.9857Z" fill="#3851A3"/>
<path d="M127.024 19.8036C124.741 19.8036 123.336 21.2056 123.336 24.0681V28.5079H119.883V16.4738H123.336V18.9273C124.039 17.2332 125.151 16.1817 127.2 16.2401V19.8036H127.024Z" fill="#3851A3"/>
</g>
<defs>
<clipPath id="clip0">
<rect width="127.2" height="28.8" fill="white"/>
</clipPath>
</defs>
</svg>
